<svg width="94" height="28" viewBox="0 0 94 28" fill="none" xmlns="http://www.w3.org/2000/svg">
<path d="M40.3663 20.1989C39.4776 20.1989 38.6089 20.0995 37.7601 19.9005C36.9245 19.7016 36.195 19.4032 35.5717 19.0053C35.2666 18.8063 35.0809 18.561 35.0146 18.2692C34.9483 17.9774 34.9682 17.7055 35.0743 17.4535C35.1937 17.1882 35.3727 17.0092 35.6115 16.9163C35.8635 16.8102 36.1486 16.8567 36.4669 17.0556C37.0505 17.4004 37.6672 17.6524 38.3171 17.8116C38.967 17.9707 39.6501 18.0503 40.3663 18.0503C41.4141 18.0503 42.1767 17.8779 42.6542 17.5331C43.1316 17.175 43.3704 16.7174 43.3704 16.1603C43.3704 15.6961 43.1979 15.3314 42.8531 15.0661C42.5215 14.8009 41.9446 14.582 41.1223 14.4096L38.9339 13.952C36.4404 13.4215 35.1937 12.1416 35.1937 10.1124C35.1937 9.23702 35.4258 8.47439 35.89 7.8245C36.3542 7.17461 36.9975 6.67061 37.8198 6.31251C38.6421 5.95441 39.5904 5.77535 40.6647 5.77535C41.4605 5.77535 42.2165 5.87483 42.9327 6.07377C43.6489 6.27272 44.2921 6.56451 44.8625 6.94914C45.1277 7.13482 45.2869 7.36692 45.3399 7.64545C45.393 7.91071 45.3598 8.16271 45.2405 8.40144C45.1211 8.62692 44.9288 8.78607 44.6635 8.87891C44.4115 8.95849 44.1131 8.89881 43.7683 8.69986C43.2775 8.42134 42.7802 8.22239 42.2762 8.10302C41.7722 7.98366 41.2284 7.92397 40.6448 7.92397C39.7296 7.92397 39.0134 8.11629 38.4962 8.50092C37.9789 8.88555 37.7203 9.38954 37.7203 10.0129C37.7203 10.4904 37.8794 10.875 38.1978 11.1668C38.5161 11.4453 39.0599 11.6642 39.8291 11.8233L41.9976 12.2809C43.3107 12.5594 44.2855 12.9971 44.9221 13.5939C45.572 14.1908 45.897 14.9866 45.897 15.9813C45.897 16.8169 45.6715 17.553 45.2206 18.1896C44.7696 18.8262 44.1264 19.3236 43.2908 19.6817C42.4685 20.0265 41.4936 20.1989 40.3663 20.1989ZM49.0773 23.7402C48.255 23.7402 47.8438 23.3224 47.8438 22.4868V11.3657C47.8438 10.5302 48.2484 10.1124 49.0574 10.1124C49.8797 10.1124 50.2909 10.5302 50.2909 11.3657V11.7835C50.5694 11.2663 50.9872 10.8551 51.5442 10.5501C52.1013 10.2317 52.7379 10.0726 53.4541 10.0726C54.303 10.0726 55.0457 10.2782 55.6823 10.6893C56.3322 11.1005 56.8362 11.6841 57.1943 12.44C57.5524 13.1828 57.7315 14.078 57.7315 15.1258C57.7315 16.1603 57.5524 17.0622 57.1943 17.8315C56.8362 18.5875 56.3388 19.1711 55.7022 19.5822C55.0656 19.9934 54.3162 20.1989 53.4541 20.1989C52.7644 20.1989 52.1411 20.0531 51.584 19.7613C51.0402 19.4562 50.6225 19.0517 50.3307 18.5477V22.4868C50.3307 23.3224 49.9129 23.7402 49.0773 23.7402ZM52.7578 18.309C53.5005 18.309 54.0974 18.0437 54.5483 17.5132C54.9993 16.9694 55.2247 16.1736 55.2247 15.1258C55.2247 14.0648 54.9993 13.2756 54.5483 12.7584C54.0974 12.2278 53.5005 11.9626 52.7578 11.9626C52.0151 11.9626 51.4182 12.2278 50.9673 12.7584C50.5164 13.2756 50.2909 14.0648 50.2909 15.1258C50.2909 16.1736 50.5164 16.9694 50.9673 17.5132C51.4182 18.0437 52.0151 18.309 52.7578 18.309ZM64.2093 20.1989C63.2013 20.1989 62.326 19.9934 61.5833 19.5822C60.8405 19.1711 60.2636 18.5875 59.8524 17.8315C59.4413 17.0622 59.2357 16.1603 59.2357 15.1258C59.2357 14.0913 59.4413 13.196 59.8524 12.44C60.2636 11.6841 60.8405 11.1005 61.5833 10.6893C62.326 10.2782 63.2013 10.0726 64.2093 10.0726C65.2173 10.0726 66.0927 10.2782 66.8354 10.6893C67.5782 11.1005 68.1551 11.6841 68.5663 12.44C68.9774 13.196 69.183 14.0913 69.183 15.1258C69.183 16.1603 68.9774 17.0622 68.5663 17.8315C68.1551 18.5875 67.5782 19.1711 66.8354 19.5822C66.0927 19.9934 65.2173 20.1989 64.2093 20.1989ZM64.2093 18.309C64.9521 18.309 65.5489 18.0437 65.9999 17.5132C66.4508 16.9694 66.6763 16.1736 66.6763 15.1258C66.6763 14.0648 66.4508 13.2756 65.9999 12.7584C65.5489 12.2278 64.9521 11.9626 64.2093 11.9626C63.4666 11.9626 62.8698 12.2278 62.4188 12.7584C61.9679 13.2756 61.7424 14.0648 61.7424 15.1258C61.7424 16.1736 61.9679 16.9694 62.4188 17.5132C62.8698 18.0437 63.4666 18.309 64.2093 18.309ZM75.5948 20.1989C73.0218 20.1989 71.7353 18.9257 71.7353 16.3792V12.1416H70.7007C70.0376 12.1416 69.706 11.8299 69.706 11.2066C69.706 10.5832 70.0376 10.2715 70.7007 10.2715H71.7353V8.46113C71.7353 7.62555 72.153 7.20777 72.9886 7.20777C73.8109 7.20777 74.2221 7.62555 74.2221 8.46113V10.2715H76.3309C76.9941 10.2715 77.3256 10.5832 77.3256 11.2066C77.3256 11.8299 76.9941 12.1416 76.3309 12.1416H74.2221V16.2399C74.2221 16.8765 74.3613 17.354 74.6399 17.6723C74.9184 17.9906 75.3693 18.1498 75.9927 18.1498C76.2182 18.1498 76.4171 18.1299 76.5895 18.0901C76.762 18.0503 76.9145 18.0238 77.0471 18.0105C77.2063 17.9973 77.3389 18.0503 77.445 18.1697C77.5511 18.2758 77.6042 18.5013 77.6042 18.8461C77.6042 19.1114 77.5577 19.3501 77.4649 19.5623C77.3853 19.7613 77.2328 19.9005 77.0073 19.9801C76.8349 20.0332 76.6094 20.0796 76.3309 20.1194C76.0524 20.1724 75.807 20.1989 75.5948 20.1989ZM82.6667 20.1989C80.0937 20.1989 78.8072 18.9257 78.8072 16.3792V12.1416H77.7726C77.1095 12.1416 76.7779 11.8299 76.7779 11.2066C76.7779 10.5832 77.1095 10.2715 77.7726 10.2715H78.8072V8.46113C78.8072 7.62555 79.2249 7.20777 80.0605 7.20777C80.8828 7.20777 81.294 7.62555 81.294 8.46113V10.2715H83.4028C84.066 10.2715 84.3975 10.5832 84.3975 11.2066C84.3975 11.8299 84.066 12.1416 83.4028 12.1416H81.294V16.2399C81.294 16.8765 81.4333 17.354 81.7118 17.6723C81.9903 17.9906 82.4412 18.1498 83.0646 18.1498C83.2901 18.1498 83.489 18.1299 83.6614 18.0901C83.8339 18.0503 83.9864 18.0238 84.119 18.0105C84.2782 17.9973 84.4108 18.0503 84.5169 18.1697C84.623 18.2758 84.6761 18.5013 84.6761 18.8461C84.6761 19.1114 84.6297 19.3501 84.5368 19.5623C84.4572 19.7613 84.3047 19.9005 84.0792 19.9801C83.9068 20.0332 83.6813 20.0796 83.4028 20.1194C83.1243 20.1724 82.8789 20.1989 82.6667 20.1989ZM87.1189 20.1592C86.2701 20.1592 85.8457 19.7347 85.8457 18.8859V11.3657C85.8457 10.5302 86.2502 10.1124 87.0592 10.1124C87.8683 10.1124 88.2728 10.5302 88.2728 11.3657V11.9825C88.7503 10.8418 89.7715 10.2052 91.3366 10.0726C91.9069 10.0063 92.2252 10.3312 92.2915 11.0474C92.3578 11.7504 92.013 12.1416 91.257 12.2212L90.8193 12.261C89.188 12.4202 88.3723 13.2557 88.3723 14.7677V18.8859C88.3723 19.7347 87.9545 20.1592 87.1189 20.1592Z" fill="#274B89"/>
<path fill-rule="evenodd" clip-rule="evenodd" d="M12 26C18.6274 26 24 20.6274 24 14C24 7.37258 18.6274 2 12 2C5.37258 2 0 7.37258 0 14C0 20.6274 5.37258 26 12 26ZM12.0004 21.9196C16.3745 21.9196 19.9204 18.3737 19.9204 13.9996C19.9204 9.62549 16.3745 6.07959 12.0004 6.07959C7.62635 6.07959 4.08044 9.62549 4.08044 13.9996C4.08044 18.3737 7.62635 21.9196 12.0004 21.9196Z" fill="#274B89"/>
<circle cx="12.0003" cy="14.0004" r="3.6" fill="#274B89"/>
</svg>
